<?xml version="1.0" encoding="UTF-8"?>
<svg width="1310px" height="650px" viewBox="0 0 1310 650" version="1.1" xmlns="http://www.w3.org/2000/svg" xmlns:xlink="http://www.w3.org/1999/xlink">
    <title>shard-dark-gray</title>
    <defs>
        <linearGradient x1="-6.1519606%" y1="68.7153376%" x2="156.394835%" y2="19.6989148%" id="linearGradient-1">
            <stop stop-color="#000000" offset="0%"></stop>
            <stop stop-color="#5A6265" offset="100%"></stop>
        </linearGradient>
    </defs>
    <g id="TESTING" stroke="none" stroke-width="1" fill="none" fill-rule="evenodd">
        <g id="shard-dark-gray" fill="url(#linearGradient-1)">
            <path d="M1307.17403,0 C1308.76045,0.163637017 1310,1.52164062 1310,3.14984487 C1310,3.89383147 1309.63071,4.59200652 1309.30854,5.11599354 C1309.09376,5.46531822 1144.93293,215.989126 816.826064,636.687416 C809.444339,646.154747 802.04478,650.021958 789.904575,650 L263.934424,650 C251.875283,650.022846 244.393038,646.406221 237.048603,636.797033 C213.586296,606.102731 135.523974,504.595574 2.86163695,332.275563 C-0.592443745,328.045687 -1.08902186,323.872775 2.30405786,319.486003 C125.385672,159.660563 203.861375,57.6278507 237.731165,13.387865 C244.983187,3.91569784 252.364912,-0.00793301532 264.586182,0 L1307.17403,0 Z" transform="translate(655.000000, 325.000000) scale(-1, 1) translate(-655.000000, -325.000000) "></path>
        </g>
    </g>
</svg>